<svg xmlns="http://www.w3.org/2000/svg" width="250" height="250" viewBox="0 0 250 250">
  <metadata><?xpacket begin="﻿" id="W5M0MpCehiHzreSzNTczkc9d"?>
<x:xmpmeta xmlns:x="adobe:ns:meta/" x:xmptk="Adobe XMP Core 5.6-c140 79.160451, 2017/05/06-01:08:21        ">
   <rdf:RDF xmlns:rdf="http://www.w3.org/1999/02/22-rdf-syntax-ns#">
      <rdf:Description rdf:about=""/>
   </rdf:RDF>
</x:xmpmeta>
                                                                                                    
                                                                                                    
                                                                                                    
                                                                                                    
                                                                                                    
                                                                                                    
                                                                                                    
                                                                                                    
                                                                                                    
                                                                                                    
                                                                                                    
                                                                                                    
                                                                                                    
                                                                                                    
                                                                                                    
                                                                                                    
                                                                                                    
                                                                                                    
                                                                                                    
                                                                                                    
                           
<?xpacket end="w"?></metadata>
<defs>
    <style>
      .cls-1 {
        fill: #fff;
        fill-rule: evenodd;
      }
    </style>
  </defs>
  <path class="cls-1" d="M126,66c-29-.547-52.722,23.517-53,52-0.275,28.1,22.342,52.449,51,53s52.195-22.916,53-51C177.817,91.516,155.017,66.547,126,66ZM10,115v7H57v-7H10ZM42,40l4-4L79,68l-4,5ZM122,5h6V50l-6,1V5Zm81,31L171,68l4,5,33-32Zm-10,80v6h46v-6H193Zm-23,53,33,33,5-5-33-33Zm-49,18v46h7V187h-7ZM74,165L42,197l4,4,32-32Z"/>
</svg>
